<svg width="56" height="63" viewBox="0 0 56 63" fill="none" xmlns="http://www.w3.org/2000/svg">
<path d="M0.200771 37.1381C-0.707191 27.3649 3.46691 18.5123 10.3901 12.8879C13.0888 10.6937 17.1242 12.5727 17.1242 16.0406C17.1242 17.3143 16.5189 18.487 15.5353 19.2815C10.6297 23.2791 7.67885 29.5844 8.39766 36.5454C9.33084 45.6124 16.5945 52.9518 25.649 53.9606C37.4651 55.2847 47.5031 46.0286 47.5031 34.4773C47.5031 28.3485 44.6657 22.8629 40.2394 19.2689C39.2558 18.4744 38.6631 17.3016 38.6631 16.0406C38.6631 12.6105 42.6354 10.6685 45.3089 12.8123C51.6394 17.9196 55.7 25.7255 55.7 34.4773C55.7 50.4801 42.1058 63.3807 25.8507 62.208C12.4078 61.2622 1.44922 50.5558 0.200771 37.1381ZM27.881 0.504333C25.6111 0.504333 23.7826 2.34548 23.7826 4.60278V23.4808C23.7826 25.7507 25.6237 27.5793 27.881 27.5793C30.1383 27.5793 31.9795 25.7381 31.9795 23.4808V4.60278C31.9795 2.34548 30.1509 0.504333 27.881 0.504333Z" fill="#F40009"/>
</svg>
