<svg width="71" height="68" viewBox="0 0 71 68" fill="none" xmlns="http://www.w3.org/2000/svg">
<circle cx="41.375" cy="30.5972" r="29.625" fill="#F5EEEE"/>
<path fill-rule="evenodd" clip-rule="evenodd" d="M21.2181 0.725098H24.6726V4.18979C25.0074 4.18303 25.3446 4.17965 25.6841 4.17965C26.0412 4.17965 26.3949 4.1828 26.7454 4.18909V0.725098H30.1999V4.36185C36.1047 4.85945 40.9362 6.37631 44.6945 8.91244C49.4317 12.0676 51.9233 16.5112 52.1694 22.2431H30.1999V25.8423C31.0245 26.1278 31.9186 26.4269 32.8822 26.7393C37.0042 28.054 40.3879 29.316 43.0334 30.5255C45.7404 31.735 48.0782 33.4178 50.0469 35.5738C52.0156 37.7299 53 40.4381 53 43.6985C53 47.1166 52.0156 50.1929 50.0469 52.9274C48.0782 55.6093 45.2174 57.7128 41.4646 59.2378C38.234 60.5506 34.4791 61.2983 30.1999 61.481V67.0526H26.7454V61.5098C26.0431 61.4934 25.3521 61.464 24.6726 61.4214V67.0526H21.2181V61.0795C16.4013 60.4165 12.23 59.0138 8.70395 56.8714C3.65912 53.7162 0.921377 49.1149 0.490723 43.0674H21.2181V39.1958C21.1384 39.1717 21.0583 39.1476 20.9776 39.1234C16.7941 37.8613 13.3181 36.6256 10.5496 35.4161C7.84263 34.2066 5.50479 32.4449 3.53608 30.1311C1.56736 27.8173 0.613766 24.8462 0.67529 21.2177C0.67529 17.5892 1.75193 14.5129 3.90521 11.9888C6.12001 9.41202 9.10384 7.46631 12.8567 6.15165C15.4333 5.26361 18.2204 4.6755 21.2181 4.38732V0.725098ZM30.1999 47.1339C30.8807 46.6635 31.2211 45.9916 31.2211 45.1183C31.2211 44.2766 30.8807 43.5428 30.1999 42.9167V47.1339ZM26.7454 41.0805V47.8631C25.9496 47.8117 25.2586 47.6359 24.6726 47.3359V40.3105C25.4322 40.575 26.1231 40.8317 26.7454 41.0805ZM26.7454 24.5621V17.9367C26.3808 17.8628 25.9963 17.8259 25.5918 17.8259C25.263 17.8259 24.9566 17.8642 24.6726 17.9408V23.6166C24.7894 23.686 24.9112 23.754 25.0381 23.8207C25.5252 24.052 26.0943 24.2992 26.7454 24.5621Z" fill="#F40009"/>
<path d="M32.4109 6.11426C37.9382 7.08153 49.1586 11.3375 49.8219 20.6234" stroke="white" stroke-width="0.829094" stroke-linecap="round"/>
<path d="M22.0471 24.3542C22.8762 24.7688 49.4072 31.4015 49.8218 38.4488" stroke="white" stroke-width="0.829094" stroke-linecap="round"/>
</svg>
