<svg width="90" height="87" viewBox="0 0 90 87" fill="none" xmlns="http://www.w3.org/2000/svg">
<circle cx="24.0517" cy="24.0517" r="24.0517" fill="#F5EEEE"/>
<path d="M53.4656 74.2513L49.9718 74.7264L46.4615 74.3282C43.9421 74.0424 41.5275 73.4222 39.2606 72.5136L35.9987 71.2063L33.1519 69.1204C31.055 67.5841 29.1793 65.7622 27.5828 63.7126L25.4138 60.9278L24.0098 57.7056C23.0168 55.4268 22.3191 52.9898 21.9648 50.4404L21.4797 46.9488L21.8679 43.4363C22.1705 40.6991 22.8677 38.0846 23.9008 35.6478L25.2724 32.4124L27.4136 29.6068C28.9303 27.6195 30.7074 25.8409 32.6935 24.3226L35.4973 22.1791L38.7316 20.8047C41.1508 19.7767 43.7454 19.0799 46.4615 18.7717L49.9719 18.3735L53.4656 18.8487C56.0945 19.2062 58.6046 19.9289 60.9459 20.9639L64.161 22.3852L66.9346 24.5692C68.898 26.1152 70.6495 27.9186 72.1379 29.9277L74.2386 32.7634L75.5633 36.0182C76.5119 38.3487 77.155 40.837 77.4423 43.4363L77.8306 46.9487L77.3454 50.4404C77.0102 52.8531 76.3673 55.165 75.4578 57.3373L74.1008 60.5787L71.9722 63.3937C70.4046 65.4667 68.5546 67.3151 66.4803 68.881L63.6635 71.0073L60.421 72.3616C58.231 73.2764 55.8993 73.9203 53.4656 74.2513ZM78.3826 27.7248L78.3853 27.7295C78.3844 27.728 78.3835 27.7264 78.3826 27.7248L81.7969 25.7536L78.3826 27.7248Z" stroke="#F40009" stroke-width="11.6379"/>
<circle cx="49.6552" cy="46.5517" r="25.6034" fill="white"/>
<path d="M73.707 28.7069C77.6812 33.5425 79.9139 40.1011 79.9139 46.9397C79.9139 53.7783 77.6812 60.3368 73.707 65.1724" stroke="white" stroke-width="0.775862" stroke-linecap="round"/>
<path d="M29.2386 41.1573V36.0772H37.5183V53.931H31.8275V41.1573H29.2386ZM39.5311 44.7476C39.5311 41.9308 40.1255 39.7163 41.3141 38.1044C42.519 36.4924 44.3671 35.6864 46.8583 35.6864C49.3333 35.6864 51.1732 36.5005 52.3781 38.1288C53.583 39.7408 54.1855 41.947 54.1855 44.7476C54.1855 47.5645 53.583 49.7871 52.3781 51.4154C51.1732 53.0273 49.3333 53.8333 46.8583 53.8333C44.3671 53.8333 42.519 53.0273 41.3141 51.4154C40.1255 49.7871 39.5311 47.5645 39.5311 44.7476ZM48.8366 44.7476C48.8366 43.445 48.7064 42.4681 48.4459 41.8168C48.1853 41.1492 47.6562 40.8154 46.8583 40.8154C46.0442 40.8154 45.5068 41.1492 45.2463 41.8168C44.9858 42.4681 44.8555 43.445 44.8555 44.7476C44.8555 46.0665 44.9858 47.0598 45.2463 47.7274C45.5068 48.3787 46.0442 48.7043 46.8583 48.7043C47.6562 48.7043 48.1853 48.3787 48.4459 47.7274C48.7064 47.0598 48.8366 46.0665 48.8366 44.7476ZM55.7024 44.7476C55.7024 41.9308 56.2967 39.7163 57.4854 38.1044C58.6903 36.4924 60.5384 35.6864 63.0296 35.6864C65.5045 35.6864 67.3445 36.5005 68.5494 38.1288C69.7543 39.7408 70.3568 41.947 70.3568 44.7476C70.3568 47.5645 69.7543 49.7871 68.5494 51.4154C67.3445 53.0273 65.5045 53.8333 63.0296 53.8333C60.5384 53.8333 58.6903 53.0273 57.4854 51.4154C56.2967 49.7871 55.7024 47.5645 55.7024 44.7476ZM65.0079 44.7476C65.0079 43.445 64.8777 42.4681 64.6171 41.8168C64.3566 41.1492 63.8274 40.8154 63.0296 40.8154C62.2155 40.8154 61.6781 41.1492 61.4176 41.8168C61.1571 42.4681 61.0268 43.445 61.0268 44.7476C61.0268 46.0665 61.1571 47.0598 61.4176 47.7274C61.6781 48.3787 62.2155 48.7043 63.0296 48.7043C63.8274 48.7043 64.3566 48.3787 64.6171 47.7274C64.8777 47.0598 65.0079 46.0665 65.0079 44.7476Z" fill="#F40009"/>
<path d="M44.6687 60.8358C44.6687 60.1323 44.8685 59.5968 45.2681 59.2291C45.6678 58.8534 46.1914 58.6656 46.8388 58.6656C47.4783 58.6656 47.9939 58.8534 48.3855 59.2291C48.7852 59.5968 48.985 60.1323 48.985 60.8358C48.985 61.5392 48.7852 62.0747 48.3855 62.4424C47.9939 62.8101 47.4783 62.9939 46.8388 62.9939C46.1914 62.9939 45.6678 62.8101 45.2681 62.4424C44.8685 62.0747 44.6687 61.5392 44.6687 60.8358ZM53.5532 58.7855L49.0809 67.3103H46.5391L51.0113 58.7855H53.5532ZM46.8148 60.2123C46.5431 60.2123 46.4072 60.4201 46.4072 60.8358C46.4072 61.2434 46.5431 61.4472 46.8148 61.4472C46.9587 61.4472 47.0666 61.3953 47.1386 61.2914C47.2185 61.1875 47.2585 61.0356 47.2585 60.8358C47.2585 60.6279 47.2185 60.4721 47.1386 60.3681C47.0666 60.2642 46.9587 60.2123 46.8148 60.2123ZM51.1072 65.26C51.1072 64.5566 51.3071 64.0211 51.7067 63.6534C52.1064 63.2777 52.626 63.0899 53.2654 63.0899C53.9129 63.0899 54.4324 63.2777 54.8241 63.6534C55.2158 64.0211 55.4116 64.5566 55.4116 65.26C55.4116 65.9634 55.2158 66.503 54.8241 66.8787C54.4324 67.2464 53.9129 67.4302 53.2654 67.4302C52.626 67.4302 52.1064 67.2464 51.7067 66.8787C51.3071 66.503 51.1072 65.9634 51.1072 65.26ZM53.2534 64.6366C52.9737 64.6366 52.8338 64.8444 52.8338 65.26C52.8338 65.6757 52.9737 65.8835 53.2534 65.8835C53.3893 65.8835 53.4932 65.8315 53.5652 65.7276C53.6451 65.6237 53.6851 65.4679 53.6851 65.26C53.6851 65.0602 53.6451 64.9083 53.5652 64.8044C53.4932 64.6925 53.3893 64.6366 53.2534 64.6366Z" fill="#F40009"/>
</svg>
