<svg width="62" height="62" viewBox="0 0 62 62" fill="none" xmlns="http://www.w3.org/2000/svg">
<path d="M29.1751 25.1394L37.3382 16.9763C36.4668 13.7543 37.075 10.3877 39.0481 7.6405C41.1563 4.70591 44.4355 3.02281 48.045 3.02281C49.2558 3.02281 50.4462 3.21718 51.5839 3.60073C51.9458 3.7228 52.2194 4.02237 52.3077 4.39379C52.3964 4.76565 52.2873 5.15655 52.0194 5.42841L47.4909 10.0245V12.2578L49.9155 14.7699H52.1181L56.7124 10.1392C56.9825 9.86645 57.3756 9.75347 57.7496 9.84048C58.1236 9.92706 58.4262 10.2019 58.5487 10.566C58.9323 11.7037 59.1267 12.8941 59.1267 14.1049C59.1267 20.2152 54.1557 25.1866 48.045 25.1866C47.0697 25.1866 46.1069 25.0602 45.174 24.8109L38.6113 31.3736M29.1751 25.1394L15.5752 11.5084V8.83313C15.5752 8.44396 15.3709 8.08292 15.0371 7.88293L7.2013 3.18082C6.76494 2.91892 6.20694 2.98775 5.84764 3.34748L2.71348 6.48121C2.35417 6.84095 2.28534 7.39895 2.54681 7.83531L7.24805 15.6711C7.44805 16.0049 7.80865 16.2088 8.19783 16.2092L10.8723 16.2101L24.4734 29.8411M29.1751 25.1394L24.4734 29.8411M24.4734 29.8411L16.3415 37.973C13.1194 37.1021 9.75106 37.7111 7.0026 39.6856C4.06974 41.7925 2.38794 45.0708 2.38794 48.6803C2.38794 49.8907 2.58231 51.0815 2.96585 52.2188C3.08836 52.5828 3.39096 52.8577 3.76498 52.9443C4.13943 53.0313 4.53207 52.9183 4.80263 52.6456L9.39651 48.0154H11.6112L14.1346 50.5387V52.7534L9.5043 57.3473C9.23158 57.6178 9.11859 58.0105 9.20561 58.3849C9.29219 58.7589 9.56707 59.0615 9.93114 59.1841C11.0684 59.5676 12.2593 59.762 13.4696 59.762C17.0791 59.762 20.357 58.0797 22.4643 55.1469C24.4388 52.3984 25.0478 49.0305 24.1769 45.8084L30.7079 39.2774M30.7079 39.2774L32.204 40.9024L31.5175 41.5886C31.0846 42.0215 31.0846 42.7232 31.5175 43.1561C31.9504 43.5886 32.6516 43.5886 33.085 43.1561L33.7066 42.5345L47.7437 57.7819C47.7541 57.7932 47.7649 57.804 47.7757 57.8148C50.3731 60.4122 54.5813 60.413 57.1799 57.8144C59.7712 55.2218 59.7712 51.0032 57.1799 48.4106C57.1687 48.3993 57.157 48.3885 57.1453 48.3777L41.874 34.3675L42.4888 33.7527C42.9217 33.3203 42.9217 32.6186 42.4888 32.1857C42.0559 31.7528 41.3546 31.7528 40.9212 32.1857L40.2394 32.8679L38.6113 31.3736M30.7079 39.2774L32.2763 37.7085L37.0425 32.9419L38.6113 31.3736M27.608 26.7069L26.0405 28.274" stroke="#F40009" stroke-width="4.11852"/>
</svg>
