<svg width="90" height="87" viewBox="0 0 90 87" fill="none" xmlns="http://www.w3.org/2000/svg">
<circle cx="24.0517" cy="24.0517" r="24.0517" fill="#F5EEEE"/>
<path d="M87.016 38.5587L79.8768 37.7011C79.1472 34.978 78.0784 32.4053 76.7024 30.0182L81.1408 24.3769C81.8192 23.5097 81.7424 22.169 80.9584 21.3882L73.6016 14.0285C72.8272 13.2509 71.4832 13.1677 70.6128 13.8461L64.9616 18.2907C62.584 16.9148 60.0112 15.846 57.2944 15.1228L56.44 7.98392C56.3088 6.89276 55.3008 6 54.2 6H43.7936C42.6928 6 41.6848 6.89276 41.5568 7.98392L40.6992 15.1228C37.9792 15.8492 35.4032 16.9212 33.0256 18.2939L27.3776 13.8557C26.5136 13.1773 25.1696 13.2573 24.392 14.0349L17.032 21.3978C16.2576 22.1722 16.1776 23.5161 16.8592 24.3865L21.2944 30.031C19.9184 32.4117 18.8496 34.9876 18.1232 37.7107L10.9872 38.5651C9.896 38.6931 9 39.701 9 40.805V51.211C9 52.3117 9.8928 53.3133 10.9872 53.4477L18.1264 54.3053C18.856 57.0188 19.9216 59.5915 21.2976 61.9722L16.8624 67.6231C16.1872 68.4903 16.264 69.831 17.0448 70.6118L24.392 77.9747C25.1696 78.7491 26.5136 78.8355 27.3776 78.1571L33.0288 73.7093C35.4096 75.0852 37.9824 76.1572 40.7024 76.8804L41.56 84.0161C41.6912 85.1104 42.696 86 43.7968 86H54.2032C55.3072 86 56.312 85.1104 56.44 84.0161L57.2976 76.8804C60.0208 76.1508 62.5936 75.082 64.9712 73.7093L70.6224 78.1475C71.4896 78.8259 72.8304 78.7459 73.608 77.9683L80.9648 70.6054C81.7456 69.831 81.8256 68.4871 81.144 67.6135L76.7024 61.969C78.0816 59.5883 79.1472 57.0156 79.8768 54.2989L87.0128 53.4413C88.1072 53.3101 89 52.3117 89 51.2046V40.7986C89.0032 39.6915 88.1136 38.6899 87.016 38.5587ZM49.0032 65.9976C37.9568 65.9976 29.0032 57.0444 29.0032 45.9984C29.0032 34.9524 37.9568 25.9992 49.0032 25.9992C60.0496 25.9992 69.0032 34.9524 69.0032 45.9984C69.0032 57.0444 60.0528 65.9976 49.0032 65.9976Z" fill="#F40009"/>
<circle cx="49.6552" cy="46.5517" r="25.6034" fill="white"/>
<path d="M71.707 28.7068C75.6812 33.5424 77.9139 40.1009 77.9139 46.9395C77.9139 53.7782 75.6812 60.3367 71.707 65.1723" stroke="white" stroke-width="0.775862" stroke-linecap="round"/>
<path d="M29.2386 41.1575V36.0773H37.5183V53.9312H31.8275V41.1575H29.2386ZM39.5311 44.7478C39.5311 41.9309 40.1255 39.7164 41.3141 38.1045C42.519 36.4925 44.3671 35.6865 46.8583 35.6865C49.3333 35.6865 51.1732 36.5006 52.3781 38.1289C53.583 39.7409 54.1855 41.9472 54.1855 44.7478C54.1855 47.5647 53.583 49.7872 52.3781 51.4155C51.1732 53.0275 49.3333 53.8335 46.8583 53.8335C44.3671 53.8335 42.519 53.0275 41.3141 51.4155C40.1255 49.7872 39.5311 47.5647 39.5311 44.7478ZM48.8366 44.7478C48.8366 43.4452 48.7064 42.4682 48.4459 41.8169C48.1853 41.1493 47.6562 40.8155 46.8583 40.8155C46.0442 40.8155 45.5068 41.1493 45.2463 41.8169C44.9858 42.4682 44.8555 43.4452 44.8555 44.7478C44.8555 46.0667 44.9858 47.0599 45.2463 47.7275C45.5068 48.3788 46.0442 48.7044 46.8583 48.7044C47.6562 48.7044 48.1853 48.3788 48.4459 47.7275C48.7064 47.0599 48.8366 46.0667 48.8366 44.7478ZM55.7024 44.7478C55.7024 41.9309 56.2967 39.7164 57.4854 38.1045C58.6903 36.4925 60.5384 35.6865 63.0296 35.6865C65.5045 35.6865 67.3445 36.5006 68.5494 38.1289C69.7543 39.7409 70.3568 41.9472 70.3568 44.7478C70.3568 47.5647 69.7543 49.7872 68.5494 51.4155C67.3445 53.0275 65.5045 53.8335 63.0296 53.8335C60.5384 53.8335 58.6903 53.0275 57.4854 51.4155C56.2967 49.7872 55.7024 47.5647 55.7024 44.7478ZM65.0079 44.7478C65.0079 43.4452 64.8777 42.4682 64.6171 41.8169C64.3566 41.1493 63.8274 40.8155 63.0296 40.8155C62.2155 40.8155 61.6781 41.1493 61.4176 41.8169C61.1571 42.4682 61.0268 43.4452 61.0268 44.7478C61.0268 46.0667 61.1571 47.0599 61.4176 47.7275C61.6781 48.3788 62.2155 48.7044 63.0296 48.7044C63.8274 48.7044 64.3566 48.3788 64.6171 47.7275C64.8777 47.0599 65.0079 46.0667 65.0079 44.7478Z" fill="#F40009"/>
<path d="M44.6687 60.8358C44.6687 60.1323 44.8685 59.5968 45.2681 59.2291C45.6678 58.8534 46.1914 58.6656 46.8388 58.6656C47.4783 58.6656 47.9939 58.8534 48.3855 59.2291C48.7852 59.5968 48.985 60.1323 48.985 60.8358C48.985 61.5392 48.7852 62.0747 48.3855 62.4424C47.9939 62.8101 47.4783 62.9939 46.8388 62.9939C46.1914 62.9939 45.6678 62.8101 45.2681 62.4424C44.8685 62.0747 44.6687 61.5392 44.6687 60.8358ZM53.5532 58.7855L49.0809 67.3103H46.5391L51.0113 58.7855H53.5532ZM46.8148 60.2123C46.5431 60.2123 46.4072 60.4201 46.4072 60.8358C46.4072 61.2434 46.5431 61.4472 46.8148 61.4472C46.9587 61.4472 47.0666 61.3953 47.1386 61.2914C47.2185 61.1875 47.2585 61.0356 47.2585 60.8358C47.2585 60.6279 47.2185 60.4721 47.1386 60.3681C47.0666 60.2642 46.9587 60.2123 46.8148 60.2123ZM51.1072 65.26C51.1072 64.5566 51.3071 64.0211 51.7067 63.6534C52.1064 63.2777 52.626 63.0899 53.2654 63.0899C53.9129 63.0899 54.4324 63.2777 54.8241 63.6534C55.2158 64.0211 55.4116 64.5566 55.4116 65.26C55.4116 65.9634 55.2158 66.503 54.8241 66.8787C54.4324 67.2464 53.9129 67.4302 53.2654 67.4302C52.626 67.4302 52.1064 67.2464 51.7067 66.8787C51.3071 66.503 51.1072 65.9634 51.1072 65.26ZM53.2534 64.6366C52.9737 64.6366 52.8338 64.8444 52.8338 65.26C52.8338 65.6757 52.9737 65.8835 53.2534 65.8835C53.3893 65.8835 53.4932 65.8315 53.5652 65.7276C53.6451 65.6237 53.6851 65.4679 53.6851 65.26C53.6851 65.0602 53.6451 64.9083 53.5652 64.8044C53.4932 64.6925 53.3893 64.6366 53.2534 64.6366Z" fill="#F40009"/>
</svg>
