<svg width="46" height="38" viewBox="0 0 46 38" fill="none" xmlns="http://www.w3.org/2000/svg">
<path d="M26.3769 35.6216C24.7523 33.1848 23.94 29.7733 23.94 25.387C23.94 21.0007 24.7523 17.3454 26.3769 14.4212C28.1639 11.3346 30.1133 8.81651 32.2253 6.86704C34.3372 4.75512 36.3679 3.13057 38.3173 1.99339C40.2668 0.856194 41.404 0.287598 41.7289 0.287598C43.191 0.287598 44.3282 1.26233 45.1405 3.2118C40.2668 5.97354 37.4238 8.41037 36.6115 10.5223C35.7993 12.6342 35.3931 14.5024 35.3931 16.127C35.3931 19.2137 37.2614 22.6252 40.9978 26.3617C41.8101 27.174 42.2163 28.3924 42.2163 30.0169C42.2163 31.479 41.2415 33.1036 39.2921 34.8906C37.3426 36.5152 34.987 37.3274 32.2253 37.3274C29.7884 37.3274 27.839 36.7588 26.3769 35.6216ZM2.49591 35.8653C0.871359 33.4285 0.059082 30.0169 0.059082 25.6306C0.059082 21.2443 0.871359 17.5891 2.49591 14.6649C4.28292 11.5783 6.23239 8.97896 8.34431 6.86704C10.4562 4.75512 12.4869 3.13057 14.4364 1.99339C16.3858 0.856194 17.523 0.287598 17.8479 0.287598C19.31 0.287598 20.4472 1.26233 21.2595 3.2118C16.3859 6.136 13.5429 8.65405 12.7306 10.766C11.9183 12.8779 11.5122 14.6649 11.5122 16.127C11.5122 18.5638 12.2432 20.757 13.7053 22.7064C15.3299 24.4935 16.4671 25.7931 17.1169 26.6054C17.9292 27.4177 18.3353 28.6361 18.3353 30.2606C18.3353 31.7227 17.3606 33.3473 15.4111 35.1343C13.4617 36.7588 11.6746 37.5711 10.0501 37.5711C6.96344 37.5711 4.44538 37.0025 2.49591 35.8653Z" fill="#F40009"/>
</svg>
